# xmcd
#
# Track frame offsets:
#	150
#	15171
#	26861
#	40703
#	54838
#	66348
#	80996
#	94388
#	107146
#	120528
#	135481
#	144498
#	156536
#	168123
#	181426
#	195313
#	209163
#	222256
#	237051
#	251298
#	264448
#	273038
#	286183
#	297493
#
# Disc length: 4112 seconds
#
# Revision: 0
# Processed by: cddbd v1.4PL0 Copyright (c) Steve Scherf et al.
# Submitted via: dBpowerAMP V4.0
#
DISCID=5d100e18
DTITLE=Nat King Cole - Straihten Up and Fly Right
DYEAR=2001
DGENRE=Blues
TTITLE0=Body and Soul.
TTITLE1=Is you is or is you ain't my baby
TTITLE2=My lips rememeber your kisses
TTITLE3=Sweet Lorraine
TTITLE4=Honeysuckle rose
TTITLE5=That ain't right
TTITLE6=Hit that jive Jack
TTITLE7=Jack the bellboy
TTITLE8=Blue because of you
TTITLE9=This will make you laugh
TTITLE10=Solid potato salad
TTITLE11=Gone with the draft
TTITLE12=Have fun
TTITLE13=What is this thing called love
TTITLE14=If you can't smile answer yes
TTITLE15=Come to baby do
TTITLE16=It's only a paper moon
TTITLE17=Frim fram sauce
TTITLE18=Cal the police
TTITLE19=Gee baby ain't I good for you
TTITLE20=I got rythm
TTITLE21=It 's better to be by yourself
TTITLE22=I can't give you anything but love
TTITLE23=Straight up and fly right
EXTD=Sami Osman
EXTT0=
EXTT1=
EXTT2=
EXTT3=
EXTT4=
EXTT5=
EXTT6=
EXTT7=
EXTT8=
EXTT9=
EXTT10=
EXTT11=
EXTT12=
EXTT13=
EXTT14=
EXTT15=
EXTT16=
EXTT17=
EXTT18=
EXTT19=
EXTT20=
EXTT21=
EXTT22=
EXTT23=
PLAYORDER=
